<svg xmlns="http://www.w3.org/2000/svg" viewBox="0 0 560.04 490.89"><defs><style>.cls-1{fill:#e7cbc9;}.cls-2,.cls-3{fill:#bea2a0;}.cls-2{opacity:0.47;}.cls-4{fill:#f2d6d4;}.cls-5{fill:#fff1ef;}.cls-6{fill:#806462;}.cls-7{fill:#c1a5a3;}.cls-8{fill:#e2c7c7;}.cls-9{fill:#d7bbb9;}.cls-10{fill:#947876;}.cls-11{fill:#624644;}.cls-12{fill:#775b59;}.cls-13{fill:#240806;}.cls-14{fill:#442929;}.cls-15{fill:#654947;}.cls-16{fill:#3d211f;}.cls-17{fill:#2b1515;}.cls-18{fill:#110505;}.cls-19{fill:#ffeae8;}.cls-20{fill:#b49896;}.cls-21,.cls-28{fill:#9e8280;}.cls-22{fill:#755957;}.cls-23{fill:#dbbfbd;opacity:0.68;}.cls-24{fill:#dabebc;}.cls-25{fill:#886c6a;}.cls-26{fill:#402422;}.cls-27{fill:#715553;}.cls-28{opacity:0.61;}.cls-29{fill:#917573;}.cls-30{fill:#7a5958;}.cls-31{fill:#5e4240;opacity:0.78;}.cls-32{fill:#452927;}.cls-33{fill:#5f4341;}.cls-34{fill:#aa9191;}.cls-35{fill:#8c706e;}.cls-36{fill:#846866;}.cls-37{fill:#5b3f3d;}.cls-38{fill:#c9adab;}.cls-39{fill:#371b19;}.cls-40{fill:none;stroke:#a08482;stroke-miterlimit:10;}.cls-41{fill:#896766;}.cls-42{fill:#a58888;}.cls-43{opacity:0.71;}.cls-44{fill:#6c504e;}.cls-45{fill:#301412;}.cls-46,.cls-47{fill:#fff;}.cls-46{opacity:0.28;}.cls-47{opacity:0.11;}</style></defs><g id="Layer_2" data-name="Layer 2"><g id="Layer_56" data-name="Layer 56"><polygon class="cls-1" points="0 475.96 560.04 470.89 559 0 0 0 0 137.71 0 475.96"/><path class="cls-2" d="M0,137.71C71.43,165.23,199.73,203,358.58,186.06A755.48,755.48,0,0,0,559.3,136L560,339.54l-486.8-6.91Q36.61,232.8,0,133"/><path class="cls-3" d="M.52,181.53C46.75,209.07,158.4,267,309.82,262.91c116-3.14,203.76-41.27,250.22-65.68V490.89l-507.27-37Z"/><path class="cls-4" d="M364.27,250.67a232.8,232.8,0,0,1,80.71,62,306.73,306.73,0,0,1,24.26,76.93L298.45,310.48l36.64-52Z"/><path class="cls-5" d="M379.68,258.44A231.38,231.38,0,0,1,436,302.65a29.75,29.75,0,0,1-20.21,7.83,98.61,98.61,0,0,1-12.13-5.81,100.67,100.67,0,0,1-16.17-11.36A48.63,48.63,0,0,1,377,280.67a48,48,0,0,1-5.18-13.13,11.12,11.12,0,0,1,7.83-9.1Z"/><polygon class="cls-6" points="273.45 280.8 294.35 269.05 325.73 286.96 309.18 299.75 273.45 280.8"/><polygon class="cls-7" points="262.94 271.33 293.58 265.43 294.73 274.02 272.14 280.23 262.94 271.33"/><path class="cls-8" d="M323.6,221.12a138.67,138.67,0,0,1,35,2.73L342.86,236Z"/><path class="cls-9" d="M231.64,228.88l10.89,17.65-7.89-18.41Z"/><path class="cls-9" d="M329.78,225.85c-11.42-10.88-11.42-25.63-11.36-28.42l-43.61,19.44,29.36.5.44-.8,13.81-10.42a90.13,90.13,0,0,0-7.77,26.9c-1.07,8.67-1.81,15.49,2.42,19a171.2,171.2,0,0,1,17.47-10.33c5.4-2.78,10.62-5.1,15.54-7A36.52,36.52,0,0,1,329.78,225.85Z"/><path class="cls-10" d="M310.65,233.05a90.13,90.13,0,0,1,7.77-26.9l-13.81,10.42-.44.8,8.18.15a70.26,70.26,0,0,0-18.77,46.07c3.08-1.24,6.07-2.52,8.92-3.82,3.2-2.52,6.73-5.1,10.57-7.67C308.84,248.54,309.58,241.72,310.65,233.05Z"/><path class="cls-11" d="M274.81,216.87l-17.51-.3-22.82,11.18.16.37,34.47-8.71Z"/><path class="cls-11" d="M288.86,265.43V245.18l15.31-27.81-29.36-.5-5.7,2.54-34.47,8.71,7.89,18.41,17,27.49A208.06,208.06,0,0,0,288.86,265.43Z"/><path class="cls-11" d="M312.35,217.52l-8.18-.15-15.31,27.81v20.25c1.13-.43,2.26-.85,3.41-1.3.45-.18.87-.37,1.31-.54a70.26,70.26,0,0,1,18.77-46.07Z"/><polygon class="cls-12" points="263.97 237.6 274.36 250.67 290.09 232.86 262.94 232.86 263.97 237.6"/><path class="cls-13" d="M323.6,186.38a96.37,96.37,0,0,0,11.11-14.59c.61-1,2.18-4,5.31-9.85,4.19-7.89,6.29-11.84,6.56-12.63,2.2-6.31.15-11.33-3.28-22.49-5.48-17.79-1.93-10.43-9.35-34.61-4.53-14.78-6.85-22.27-9.6-27a74.09,74.09,0,0,0-20-22.47c-4.9-3.63-9.22-6.82-15.91-8.6-3.4-.91-4.69-.73-21-1.27-12.29-.41-12.55-.57-14.9-.25a50.11,50.11,0,0,0-19.23,7.17,54.81,54.81,0,0,0-12.61,11c-12.21,14-17.56,29.47-18.94,33.35-8.73,24.4-2.39,34.46-11.12,70.48-2.78,11.48-6,21.09-9.85,32.59-5.21,15.55-10.31,28.57-14.4,38.41l94.73,55.95q-8-35.43-15.89-70.87C286.71,207.53,316,194.56,323.6,186.38Z"/><path class="cls-13" d="M347,140.74a36.89,36.89,0,0,1,1.34,29.72v0A35.67,35.67,0,0,1,323.6,188a35.94,35.94,0,0,0,14.16-6.16,35.27,35.27,0,0,0,10.15-11.55v0a36.26,36.26,0,0,0-1.76-29.09Z"/><path class="cls-14" d="M323,120.13A127.52,127.52,0,0,0,345.4,138c-.64-5.44-1.53-11.15-2.73-17.1a218.41,218.41,0,0,0-12.61-41l-8.61-19.4L303.86,47.37,285.4,51.92l2.23,26.65Z"/><path class="cls-15" d="M247.22,75a43.3,43.3,0,0,1-4.21,7.2A44.36,44.36,0,0,1,234.67,91L299,83a31.51,31.51,0,0,0,11.88-17.43,34.87,34.87,0,0,0-18.57-10.74,49.95,49.95,0,0,1,29.1,5.61,68.08,68.08,0,0,0-25.06-24.81,57.79,57.79,0,0,0-25.52-4.55A38.84,38.84,0,0,0,248.3,32.4Z"/><path class="cls-14" d="M256.27,44a34.36,34.36,0,0,1-8-11.56,71.25,71.25,0,0,0-40.16,35.81Q202.31,81.83,197,96.63a516.93,516.93,0,0,0-28.42,131.5l3.41-2.52,5.88,12.84c9.47-21.55,11.77-39.06,12.12-51.06.06-2-1.67-10.37-.43-21.47a83.22,83.22,0,0,1,1.57-9.16c2.18-9.75,5.43-24.35,13.89-37.39,5.16-8,11.75-13.28,24.92-23.94a306.66,306.66,0,0,1,29.91-21.36c0-2.41.17-10.25,5.93-16.66a22.75,22.75,0,0,1,6.4-4.93A34.57,34.57,0,0,1,256.27,44Z"/><path class="cls-16" d="M251.66,239.05,233,255.16l28.87,17.68a62.73,62.73,0,0,1-6-15.2c-.5-2-.81-3.79-2.21-10.06C252.81,244,252.12,241,251.66,239.05Z"/><path class="cls-17" d="M259.87,270.47l-5-17.33-13.06,4.92Z"/><path class="cls-18" d="M192,161.93q8.16,11.69,16.3,23.38a62.32,62.32,0,0,1,9.45,25,32.4,32.4,0,0,0,3.56,8.46A33.39,33.39,0,0,0,233,230.27a19.27,19.27,0,0,1,4.61,6.45A19.49,19.49,0,0,1,239,247.45l-5.43,9.1-52-25.64a117.14,117.14,0,0,0,8.84-25A118.14,118.14,0,0,0,192,161.93Z"/><path class="cls-19" d="M285.09,265.43A59.42,59.42,0,0,1,298,284.49,83.31,83.31,0,0,0,325.73,287l44.62-36.29a58.76,58.76,0,0,0-11.77-26.82c-9.74,6.71-20.43,13.55-32.09,20.29C312,252.51,298.07,259.53,285.09,265.43Z"/><path class="cls-20" d="M226.35,104.23a59.38,59.38,0,0,1,3.36-7.13A38.28,38.28,0,0,0,226.35,104.23Z"/><path class="cls-20" d="M253.67,90.66c-2.44,3.77-3.17,7.13-4.45,13.08-1.94,8.91-3.34,15.47.09,19.32,1.69,1.9,3.1,1.44,13.17,3.7,11.25,2.52,10.7,3.37,14.4,3.5,8.4.31,11.24-4,19.8-6.34,5.05-1.36,12.74-2.16,23.4,1.23h7.79q-.48-1.74-1-3.51c-1.68-5.75-3.47-11.14-5.31-16.17A56.45,56.45,0,0,0,317,94.23c-2.46-4.58-5-9.33-9.73-12.76-5.28-3.82-8.52-2.54-16-5.18a46.21,46.21,0,0,1-16.93-10.73,108.58,108.58,0,0,1-9.46,7.7l6.8,5.18C267.76,79.47,259,82.44,253.67,90.66Z"/><path class="cls-20" d="M331.05,137.81c-.42-1.86-.88-3.77-1.36-5.71L328,137.37,309.85,135l-33.11,6.25-16.89-2.93-37-.34c-.09-1.67-.19-3.34-.28-5-.25,2.12-.53,4-.82,5.6-1.37,7.78-3,10.41-2.27,16.29.47,3.75,1.3,4.26,3.22,12.92,1.19,5.37,1,5.8,2,10a124.45,124.45,0,0,0,4.36,14.31c2.8,8,4.2,12,6.82,17.05a62.21,62.21,0,0,0,7.77,12.13,54.61,54.61,0,0,0,14.87,12.31,37.77,37.77,0,0,0,13.6,4.83,37.33,37.33,0,0,0,10.81,0,52.71,52.71,0,0,0,22.46-10.61,56,56,0,0,0,15.15-20.46,62,62,0,0,0,7.08-32.21,109.92,109.92,0,0,0,3.41-37.39Z"/><path class="cls-21" d="M223.3,118.48a60.43,60.43,0,0,1,3-14.25,58.36,58.36,0,0,0-3.9,26l.15,2.71A105.58,105.58,0,0,0,223.3,118.48Z"/><path class="cls-21" d="M330.12,130.74,328,125.15h-.17c.66,2.36,1.26,4.68,1.82,6.95Z"/><path class="cls-21" d="M259.85,138.32l16.89,2.93L309.85,135,328,137.37l1.65-5.27c-.56-2.27-1.16-4.59-1.82-6.95h-7.79c-10.66-3.39-18.35-2.59-23.4-1.23-8.56,2.29-11.4,6.65-19.8,6.34-3.7-.13-3.15-1-14.4-3.5-10.07-2.26-11.48-1.8-13.17-3.7-3.43-3.85-2-10.41-.09-19.32,1.28-5.95,2-9.31,4.45-13.08,5.31-8.22,14.09-11.19,18-12.22l-6.8-5.18c-2.16,1.57-4.56,3.19-7.21,4.8-11,6.67-16,7-21.73,11.75a29,29,0,0,0-6.22,7.29,59.38,59.38,0,0,0-3.36,7.13,60.43,60.43,0,0,0-3,14.25,105.58,105.58,0,0,1-.7,14.49c.09,1.67.19,3.34.28,5Z"/><polygon class="cls-21" points="271.67 78.44 280.75 70.86 274.33 65.56 264.87 73.27 271.67 78.44"/><path class="cls-22" d="M274.33,65.56c-8.41,7-17,14.86-25.64,23.62q-4,4-7.71,8.08a38.74,38.74,0,0,0-5.55,7.33,34.78,34.78,0,0,0-4.8,13.26,33.8,33.8,0,0,0,1.64,15.79A59.23,59.23,0,0,1,250,126.82a58.32,58.32,0,0,1,8.16-1.1,20.84,20.84,0,0,1,9.27,3.63,21.06,21.06,0,0,1,7.08,8.63l-34.61-3-17.23,3.66a66.21,66.21,0,0,1-.71-9.69,71.54,71.54,0,0,1,1-11.5c.23-1.47.65-4.09,1.47-7.39,1.33-5.28,2.68-10.64,6-15.34a29.08,29.08,0,0,1,8.85-8C253.83,77.4,269.84,68.14,274.33,65.56Z"/><path class="cls-23" d="M288.86,79.58a26.74,26.74,0,0,0-22.23,3.54,13.32,13.32,0,0,0,0,9,13,13,0,0,0,4.23,5.81,68.45,68.45,0,0,0,13.7,0,69.1,69.1,0,0,0,12-2.27,12.71,12.71,0,0,0,1.45-10,10.56,10.56,0,0,0-2.71-3.53A11,11,0,0,0,288.86,79.58Z"/><polyline class="cls-24" points="327.04 135.64 328.74 125.72 329.97 131.4 328.27 135.64"/><polygon class="cls-13" points="221.45 130.26 225.01 141.82 220.07 146.46 218.66 153.19 216.1 137.98 221.45 130.26"/><path class="cls-25" d="M271.77,144l-3.56-8a23.25,23.25,0,0,0,16.29-1l-3,10.2-9.33-1.06"/><path class="cls-26" d="M225,141.82l-1.8-5.84a44.3,44.3,0,0,1,10.23-4.58,44.77,44.77,0,0,1,14.86-1.89A31.83,31.83,0,0,1,268.21,136l2.25,4.72L242.25,138,225,141.82"/><path class="cls-26" d="M283.45,136l1.71-6.95a54,54,0,0,1,24-4.17,52,52,0,0,1,8.19.86,53.08,53.08,0,0,1,5.5,1.32l-.66,4.43Z"/><path class="cls-27" d="M282.61,142.48a8.7,8.7,0,0,1,.37-5A8.43,8.43,0,0,1,284.5,135a100.74,100.74,0,0,1,17.43-3.6,99.47,99.47,0,0,1,20.18-.28l1.49,5.59Z"/><path class="cls-27" d="M271.77,144c.43-.79-.26-2.17-2-4.15a64.65,64.65,0,0,0-31-3.22,45.5,45.5,0,0,0-15.05,5.47l34.42.19Q270.61,146.16,271.77,144Z"/><path class="cls-28" d="M305.28,199.83c-4.44-2.26-10.16-1.34-14.27,2.4,1.28.32,7.73,2,10.23,7.58,3.57,8-4.31,16.53-5.77,18-9,9.27-23.06,6.66-24.61,6.35l1.28,4.26a61.78,61.78,0,0,0,17.12-.57,99.1,99.1,0,0,0,13.11-8c2-1.42,3.83-2.86,5.54-4.28q1.71-9,3.43-18A12.54,12.54,0,0,0,305.28,199.83Z"/><path class="cls-29" d="M297.19,200.75a22.22,22.22,0,0,1-9.47,10.89,21.61,21.61,0,0,1-9.47,2.75,67.52,67.52,0,0,1-12.79-4.83,68.67,68.67,0,0,1-6.63-3.79,4.79,4.79,0,0,0-5.59.38,4.65,4.65,0,0,0-1.42,3.5,41.49,41.49,0,0,0,9.66,11.47c4.17,3.38,7.6,4.69,9.57,8.81a14.86,14.86,0,0,1,1.09,8.52,48.71,48.71,0,0,1-17.94-6.55,50.41,50.41,0,0,1-14.95-14.3c-3.4-4.71-5.16-8.67-7.42-13.82a142.15,142.15,0,0,1-11.28-49.93c-.06-2.51,0-4.61,0-6.06l5.21.57c-2.71,11,3.06,21,11.09,23.3s15.44-4.3,15.91-4.73l6.14,2.19a32.26,32.26,0,0,0-17.13,11c-.07.6-.81,8,4.76,12.6a13.79,13.79,0,0,0,8.51,3,8.2,8.2,0,0,0,5.07-3.49c2.36-3.75.34-7.86.23-8.07,3.62.36,12.25,1.77,18.57,8.71a24.85,24.85,0,0,1,3.22,4.46Z"/><path class="cls-30" d="M231,202.28c4.17,3.71,8.84,7.52,14,11.32,3.18,2.34,6.31,4.48,9.34,6.44a36.05,36.05,0,0,1,7.71,6.7,38.59,38.59,0,0,1,7,11.14,42,42,0,0,1-11.88-4,45.84,45.84,0,0,1-11.92-9.07,60.71,60.71,0,0,1-8.36-10.48A62.49,62.49,0,0,1,231,202.28Z"/><path class="cls-30" d="M233.22,207.58a9.78,9.78,0,0,1,3.53-3.9,10,10,0,0,1,6.26-1.4,20.43,20.43,0,0,1-6.83-3.71,22.3,22.3,0,0,1-6.15-8.81c-4.08-9.28-6-19.66-6.73-24.54L222,169a185,185,0,0,0,5,21.68c1.81,5.94,3.75,10.89,4,11.57C231.86,204.44,232.63,206.24,233.22,207.58Z"/><path class="cls-30" d="M236.75,203.68a1.91,1.91,0,0,0-1.13,1.14,1.83,1.83,0,0,0,.67,2L233,205.24Z"/><path class="cls-6" d="M255.27,201.13a51.16,51.16,0,0,0,9,3.22,50.38,50.38,0,0,0,16.45,1.32A49.3,49.3,0,0,0,299.18,199a32.28,32.28,0,0,0-5.87-1.37,30.1,30.1,0,0,0-4.05-.28,30.86,30.86,0,0,0-4.95.19,32.52,32.52,0,0,0-6,1.27,38,38,0,0,0-12.22-1.46,17.68,17.68,0,0,0-10.85,3.79"/><path class="cls-31" d="M254.94,200.75l-2.56.94a35.95,35.95,0,0,0,18.95,2.37,15.34,15.34,0,0,0,10.14-3,15.56,15.56,0,0,0-7.11-2.84,36.08,36.08,0,0,0-15.91,1.23A34.78,34.78,0,0,0,254.94,200.75Z"/><path class="cls-32" d="M254.85,200.08c1.42-.18,3.24-.38,5.38-.54,1.25-.1,2.93-.16,5.09-.26a34.08,34.08,0,0,1,6.77.19,27.29,27.29,0,0,1,6.25,1.61c2-.44,4.6-1,7.67-1.42,1.59-.25,2.84-.39,5.26-.71,2-.26,4.68-.6,7.91-.95a8.61,8.61,0,0,1-3.07,2.37,11.16,11.16,0,0,1-1.08.4,16.38,16.38,0,0,1-3.71.64c-2.3.19-4.61.26-6.91.33-1.48,0-3.62.16-6.26.43a83.91,83.91,0,0,1-13.36-.38A81.4,81.4,0,0,1,254.85,200.08Z"/><path class="cls-30" d="M225.1,151.58a17.31,17.31,0,0,0,1.14,5.11,17.08,17.08,0,0,0,1.48,3L222,169c-.31-1.22-.6-2.55-.82-4a38,38,0,0,1-.4-7.12Z"/><path class="cls-33" d="M220.74,145.52a9.66,9.66,0,0,0-1.45,4.63,30,30,0,0,0,.32,7.11c1.33,7.39,1.89,13,1.84,12.7a21,21,0,0,1,1-11.18,20.55,20.55,0,0,1,3.31-5.69c-.38-2.44-.75-4.88-1.13-7.32l-3.12-1.26A9.49,9.49,0,0,0,220.74,145.52Z"/><path class="cls-34" d="M292.84,167.79a33.7,33.7,0,0,0,35.43,6.53l-1.9,12.5-22.79-3.6L291,170.61l-1-4.36Z"/><path class="cls-21" d="M299.75,167.79a4.46,4.46,0,0,0-4.54,7.38,32.19,32.19,0,0,0,13.54,6.25,32.6,32.6,0,0,0,19-2,70,70,0,0,1-19.81,46.18,32,32,0,0,0-3.7-19.84c.72-3.5.06-5.56-.76-6.82-1.07-1.64-2.81-2.56-3.41-5.12a10.51,10.51,0,0,1-.19-2,30.68,30.68,0,0,0-1.23-6.91,13.09,13.09,0,0,0-4.84-6.16l-2.27,2.67a5.59,5.59,0,0,0,1.32-3.52,5.79,5.79,0,0,0-.49-2.09,52.3,52.3,0,0,0-2-4.84c-.91-1.75-2-3.85-3.42-6.22Z"/><path class="cls-35" d="M289.26,168c.75-.57,6.81,6.07,7.75,7.09,1.11,1.22,2,2.27,2.64,3a34.34,34.34,0,0,1,2.09,5.74c1,3.89.78,5.83,2.28,8.28a11.11,11.11,0,0,0,3.33,3.41,8.94,8.94,0,0,1-1.44,7.89,6.12,6.12,0,0,0-1.07-2.65,6.36,6.36,0,0,0-3.67-2.4c1.41-8.4-.36-13.06-2.33-15.79-1.22-1.69-2.3-2.34-4.68-5.56C291.35,173.22,288.67,168.43,289.26,168Z"/><path class="cls-36" d="M289.26,167.79a21.24,21.24,0,0,0,2.69.74c5,1,8.66-.07,12-.56a34.6,34.6,0,0,1,11.94.38,7.35,7.35,0,0,0-1.33-2.37c-2.48-3-6.52-2.86-7.2-2.83l-16.86-.77c-2-.64-3.93-.61-4.45.21C285.41,163.56,286.49,165.89,289.26,167.79Z"/><path class="cls-36" d="M261.19,166.07l-9,3.13c-1.05.46-1.56.81-1.51,1s1.43.45,4.07.29l3.49-1.19,4.59-1.55c.92-.84,1.29-1.81,1-2.19S262.4,165.25,261.19,166.07Z"/><path class="cls-36" d="M281,152.24a7,7,0,0,0-5.33-.57,6.86,6.86,0,0,0-3.55,2.65L263,170.15q-1.61,4.54-3.22,9.09a13.92,13.92,0,0,1,7.87-2.56,8.44,8.44,0,0,1,4.45.95c1.91,1.11,2.18,2.34,3.5,3.32s3.62,1.66,8.34.12c1.08,1.3,2.15,2.6,3.23,3.89a7.27,7.27,0,0,0-4.46.06,7.17,7.17,0,0,0-3,2v8.53a33.06,33.06,0,0,0-6.68-3,33.62,33.62,0,0,0-8.75-1.62,8.63,8.63,0,0,0-9.92-7.2l2.56-6.46c.51-1,2.43-4.52,2.94-5.47.71-1.32,2.8-5.22,3.5-6.54L273,148.64l5,.48Z"/><path class="cls-37" d="M262.94,168.78a16,16,0,0,0-2.41,8.19,15.48,15.48,0,0,0,.38,3.5,12.79,12.79,0,0,0,6.35,1.9,4.94,4.94,0,0,0,1.8-.19,4.32,4.32,0,0,0,1.8-1.17,5.39,5.39,0,0,1,3.5,3.63,17.18,17.18,0,0,1-8.24,1.33,8.82,8.82,0,0,1-3-.76,8.69,8.69,0,0,1-3.88-3.88,12,12,0,0,1,3.73-12.55Z"/><path class="cls-37" d="M283,181.23a3.15,3.15,0,0,0,.22,2.75c.58.73,1.51.82,2.75,1a9.32,9.32,0,0,0,2.94-.19,5.78,5.78,0,0,0,1.51-1.71,5.72,5.72,0,0,0,.67-1.8l-2.18-1.14a4.43,4.43,0,0,1-5.91,1.14Z"/><path class="cls-32" d="M270.86,181a13.39,13.39,0,0,0-2.72-.57,13.17,13.17,0,0,0-2.52,0,.9.9,0,0,0-.83,1.14,3.57,3.57,0,0,0,.76.57,3.38,3.38,0,0,0,2.28.25,3.92,3.92,0,0,0,3-1.39Z"/><path class="cls-32" d="M283.16,181.34a5.32,5.32,0,0,1,1-1,5.56,5.56,0,0,1,1.72-.91,4.47,4.47,0,0,1,3,.86,3.53,3.53,0,0,1-2.69,1.46,3.63,3.63,0,0,1-3-.41Z"/><path class="cls-38" d="M274,150.82l-4.17,14.4a11.45,11.45,0,0,0-.5,5.81,11.17,11.17,0,0,0,1.58,4,11.94,11.94,0,0,0,4.1,2.4,12.21,12.21,0,0,0,3.29.64,22.48,22.48,0,0,1,2-1.14,22.85,22.85,0,0,1,2.27-1c2.3-.84,5.39-.16,6.54.12a2,2,0,0,0,2.81.89,1.92,1.92,0,0,0,.25-2.4,20.08,20.08,0,0,0-1.51-2.78,21.78,21.78,0,0,0-5.94-5.94c-2.35-1.71-5.15-5.37-6.82-14Z"/><path class="cls-38" d="M265.29,170.4a11.51,11.51,0,0,0-2.59,2.27c-1,1.15-1.72,2.06-1.45,3a2.29,2.29,0,0,0,2,1.51,2.58,2.58,0,0,0,2.59-1.77,3.43,3.43,0,0,0,.88-2.14A3.67,3.67,0,0,0,265.29,170.4Z"/><path class="cls-1" d="M274,150.82c.17,4.55,0,8.28-.12,10.91-.33,5.48-.91,8.28.75,9.87a3.52,3.52,0,0,0,4.23.55c1.3-1,1-3.47.45-8-.32-2.65-.81-6.87-1.39-12.33Z"/><path class="cls-39" d="M221.88,142.48a104.51,104.51,0,0,1,19.51-2.56,94,94,0,0,1,16.49.81l5,.9A27.76,27.76,0,0,1,269,143.1a17.2,17.2,0,0,1,3.1,1.66,34.91,34.91,0,0,1-.35,8,31.6,31.6,0,0,1-1.8,6.44,17.43,17.43,0,0,1-2.56,3.88,18,18,0,0,1-5.14,4.08c-2.7.5-5.6.93-8.69,1.23a96.22,96.22,0,0,1-19.23-.1,9.43,9.43,0,0,1-4.17-2.08,9.57,9.57,0,0,1-2.78-4.11,32.64,32.64,0,0,1-1.77-5.65,33.17,33.17,0,0,1-.63-9.38l-.69,0-2.66.08C221.69,145.58,221.78,144,221.88,142.48Z"/><path class="cls-39" d="M271.33,152.34a6.69,6.69,0,0,1,4.64-2.09,6.2,6.2,0,0,1,2.66.61,42.81,42.81,0,0,0,3.88,7.63c1.74,2.72,2.9,4.53,4.81,5.88,2.44,1.73,5.51,1.69,11.58,1.7a53.42,53.42,0,0,0,11.18-1,50.39,50.39,0,0,0,6.54-1.89c3.54-1.21,4.53-1.85,5.3-2.56a10.07,10.07,0,0,0,2.65-4c.83-2.26.44-3,1.52-8.13a10.53,10.53,0,0,1,.91-2.83,9.77,9.77,0,0,1,2.59-3.14q-.27-3.21-.56-6.44a82.3,82.3,0,0,0-25,.48,42.26,42.26,0,0,0-10.58,1,41.68,41.68,0,0,0-7.87,2.59,17,17,0,0,0-6.85,4.5l-7.86-.1Z"/><path class="cls-40" d="M217.24,137a10.42,10.42,0,0,1,4.64,5.49"/><path class="cls-40" d="M221.88,142.48a105.21,105.21,0,0,1,12.74-2.12,111.89,111.89,0,0,1,17.95-.24c7.47.33,10.47,1,12.13,1.42a44.84,44.84,0,0,1,8,2.84h5.49a40.48,40.48,0,0,1,21.6-7.77c1.82-.25,3.68-.48,5.59-.66a134,134,0,0,1,23.88-.19c.12,2.24.25,4.48.37,6.72L327,145.2A44.29,44.29,0,0,1,323.72,159a22.71,22.71,0,0,1-3.6,2.84,23.34,23.34,0,0,1-9.47,3.41"/><line class="cls-40" x1="221.03" y1="147.16" x2="221.88" y2="142.48"/><path class="cls-20" d="M268.65,152.4a4.72,4.72,0,0,1-2.72,1.58c-1.49.09-3,.19-4.55.31l-4.29.38a44.44,44.44,0,0,1-17.81,1.2,7.46,7.46,0,0,1-5.12-6.94,36.84,36.84,0,0,0,22.93-2.09,25.26,25.26,0,0,0,4.17-2.59c.62-.47,1.17-.94,1.68-1.41l-.23-.07a116.29,116.29,0,0,0-14-1,117.61,117.61,0,0,0-15.73,1,8.14,8.14,0,0,0-3.79,2.46,7.9,7.9,0,0,0-1.51,2.75v9.66a9.78,9.78,0,0,0,4.55,8,54.37,54.37,0,0,0,9.66,1.89,55,55,0,0,0,14.87-.47,14.45,14.45,0,0,0,7.3-3.69,14,14,0,0,0,3.12-4.46,20.35,20.35,0,0,0,1.71-6.34c0-.17,0-.33,0-.49A4.06,4.06,0,0,1,268.65,152.4Z"/><path class="cls-41" d="M257.09,146.84a36.84,36.84,0,0,1-22.93,2.09,7.46,7.46,0,0,0,5.12,6.94,44.44,44.44,0,0,0,17.81-1.2l4.29-.38c1.54-.12,3.06-.22,4.55-.31a4.72,4.72,0,0,0,2.72-1.58,4.06,4.06,0,0,0,.26-.36,20.52,20.52,0,0,0-.33-5.58,12.15,12.15,0,0,0-2.36-2.08,12,12,0,0,0-3.28-1.54c-.51.47-1.06.94-1.68,1.41A25.26,25.26,0,0,1,257.09,146.84Z"/><path class="cls-42" d="M227.72,159.66c5.51.71,11.44,1.27,17.75,1.58,7.24.36,14,.36,20.27.12a19.22,19.22,0,0,0,3.21-10,57.49,57.49,0,0,1-20.07,3.92,56.89,56.89,0,0,1-13-1.32l-8.24-3.6Z"/><path class="cls-41" d="M227.66,148.8a7.37,7.37,0,0,1,1.51-3.57,8,8,0,0,1,3-2.15c4-1.82,9.1-1.33,10.61-1.15,2.17-.1,4.45-.14,6.82-.1a114,114,0,0,1,13.39,1,24.5,24.5,0,0,1-12.21,6.09l-13.66,5.33-9.41-3.91Z"/><path class="cls-20" d="M303.58,158.87a51.85,51.85,0,0,1-20.13-4.64v0a15.54,15.54,0,0,0,8.43,10.2,52.7,52.7,0,0,0,11.27,0,51.24,51.24,0,0,0,8.43-1.61,15.69,15.69,0,0,0,7.87-3.41,14.78,14.78,0,0,0,2.56-2.75,27.08,27.08,0,0,0,1.58-5,38.89,38.89,0,0,1-20,7.15Z"/><path class="cls-42" d="M298.62,153.76a32.27,32.27,0,0,1-15.2-6.23A12.13,12.13,0,0,0,283,150a11.9,11.9,0,0,0,.47,4.26,51.85,51.85,0,0,0,20.13,4.64,38.89,38.89,0,0,0,20-7.15c.09-.4.18-.79.25-1.21a26.35,26.35,0,0,0,.27-6.53,34.56,34.56,0,0,1-7.13,5.33A35.84,35.84,0,0,1,298.62,153.76Z"/><path class="cls-41" d="M321.64,139.74a8.17,8.17,0,0,0-3.32-1.61,110.37,110.37,0,0,0-11.37,0c-3.57.18-6.89.52-9.94.94a24.82,24.82,0,0,0-13,6.82,11.32,11.32,0,0,0-.61,1.64,32.27,32.27,0,0,0,15.2,6.23A35.84,35.84,0,0,0,317,149.31a34.56,34.56,0,0,0,7.13-5.33c0-.4-.07-.79-.11-1.14A8.28,8.28,0,0,0,321.64,139.74Z"/><g class="cls-43"><path class="cls-44" d="M316.33,140.4c-2.29.29-4.58.51-6.87.71s-4.58.33-6.87.5l-6.85.71c-2.29.21-4.58.4-6.88.52,2.26-.42,4.54-.77,6.81-1.09s4.57-.62,6.86-.89c2.3-.1,4.6-.25,6.9-.33S314,140.38,316.33,140.4Z"/></g><g class="cls-43"><path class="cls-44" d="M260.25,145.39c-2.17,0-4.32,0-6.47.1s-4.3.14-6.45.32-4.29.34-6.43.56-4.27.52-6.42.79a59.77,59.77,0,0,1,6.35-1.36c2.13-.35,4.29-.56,6.45-.74s4.33-.2,6.49-.14A58.47,58.47,0,0,1,260.25,145.39Z"/></g><path class="cls-45" d="M234.48,148.8a36.23,36.23,0,0,0,27.47-3,6.8,6.8,0,0,1,2.34,3.41,28.58,28.58,0,0,1-8,4.61c-3.34,1.27-8.81,3.33-14.52,1.07A16,16,0,0,1,234.48,148.8Z"/><path class="cls-45" d="M289.62,145.2l-2.18,1.26a20.65,20.65,0,0,0,5.11,3.6,21,21,0,0,0,9,2.18,23.58,23.58,0,0,0,15.16-10.42,40.3,40.3,0,0,1-27.09,3.38Z"/><polygon class="cls-46" points="235.9 149.56 228.98 153.41 255.56 166.25 258.11 162.28 235.9 149.56"/><polygon class="cls-47" points="251.61 154.26 247.74 154.44 261.28 160.38 262.83 159.71 251.61 154.26"/><polygon class="cls-46" points="290.36 146.46 283.45 150.31 310.03 163.15 312.58 159.18 290.36 146.46"/><polygon class="cls-47" points="308.49 150.13 304.62 150.3 318.16 156.25 319.71 155.57 308.49 150.13"/></g></g></svg>